<?xml version="1.0" encoding="UTF-8"?>
<!DOCTYPE svg PUBLIC "-//W3C//DTD SVG 1.1//EN" "http://www.w3.org/Graphics/SVG/1.1/DTD/svg11.dtd">
<!-- Creator: CorelDRAW X7.4 EN Portable -->
<svg xmlns="http://www.w3.org/2000/svg" xml:space="preserve" width="5.16146in" height="6.08657in" version="1.1" style="shape-rendering:geometricPrecision; text-rendering:geometricPrecision; image-rendering:optimizeQuality; fill-rule:evenodd; clip-rule:evenodd"
viewBox="0 0 5161 6087"
 xmlns:xlink="http://www.w3.org/1999/xlink"
 enable-background="new 0 0 514.485 515.996">
 <defs>
  <style type="text/css">
   <![CDATA[
    .fil0 {fill:none}
    .fil2 {fill:#0052FC}
    .fil1 {fill:white}
   ]]>
  </style>
 </defs>
 <g id="Layer_x0020_1">
  <metadata id="CorelCorpID_0Corel-Layer"/>
  <rect class="fil0" width="5161" height="6075"/>
  <path class="fil1" d="M3254 6075c-84,7 -170,12 -257,12l0 0c-1648,0 -2997,-1349 -2997,-2998l0 -1195 0 -267c0,-895 733,-1627 1627,-1627l0 0c895,0 1627,732 1627,1627l0 267 0 759 115 108 1792 1677c-31,40 -63,78 -99,115l0 0c-473,506 -1184,668 -1808,476l0 0 0 0 -8 -3c-10,-2 -22,-7 -31,-10l-10 -2c-10,-5 -22,-9 -32,-12l-8 -3c-10,-4 -20,-8 -31,-12l-9 -3c-11,-4 -21,-9 -31,-13l-9 -3c-10,-6 -21,-10 -31,-14l-9 -4c-10,-5 -19,-10 -31,-15l-6 -2c-11,-6 -22,-12 -34,-17l-5 -3c-10,-6 -22,-12 -33,-17l-4 -3c-12,-6 -23,-13 -34,-20l-5 -1c-11,-8 -21,-13 -32,-20l-5 -3c-11,-7 -22,-14 -34,-22l-3 -1c-11,-7 -22,-16 -32,-23l-3 -1c-11,-9 -23,-16 -34,-24l-3 -2c-11,-8 -23,-17 -33,-25l-1 0c-12,-9 -23,-19 -34,-27l-2 -2c-11,-8 -22,-18 -34,-27l0 0c-11,-10 -23,-20 -32,-30l-3 -1c-10,-8 -22,-18 -32,-28l-513 -481 -113 -106c-7,-6 -13,-12 -19,-17l0 -2c-5,-4 -11,-10 -17,-15l0 -2c-5,-6 -11,-11 -15,-15l-2 -3c-6,-5 -10,-10 -14,-16l-3 -1c-4,-6 -8,-12 -14,-17l0 -2c-6,-6 -10,-11 -14,-17l-2 -1c-4,-6 -8,-13 -14,-19l0 0c-9,-13 -18,-25 -27,-38l0 -2c-4,-5 -9,-11 -13,-18l-1 -1c-3,-6 -7,-13 -10,-19l-2 -1c-4,-6 -7,-13 -11,-19l0 -1c-4,-7 -7,-13 -11,-20l0 0c-5,-7 -7,-14 -12,-20l0 -1c-3,-8 -7,-15 -10,-20l0 -2 0 0c-2,-5 -5,-13 -10,-20l0 -1c-2,-7 -5,-13 -8,-20l0 -1c-3,-8 -6,-13 -9,-20l0 -2c-2,-7 -5,-13 -8,-20l0 -2c-3,-6 -4,-13 -7,-20l0 -2c-3,-5 -5,-13 -7,-20l0 -1c-3,-7 -5,-14 -6,-21l-1 -2c-2,-7 -3,-14 -6,-21l0 0c-2,-7 -3,-14 -4,-21l-2 -3c-1,-6 -3,-13 -4,-20l0 -3c-2,-6 -3,-13 -4,-20l0 -3c-2,-5 -3,-13 -3,-18l-2 -5c0,-5 -1,-12 -2,-18l0 -3c-2,-7 -2,-14 -3,-20l0 -3c0,-7 -2,-14 -2,-21l0 0c-44,877 978,1602 1603,2085l0 561 0 0z"/>
  <path class="fil2" d="M1165 763c199,0 373,95 462,236 91,-141 264,-236 463,-236 194,0 361,90 454,223 101,134 158,290 158,458 0,484 -481,878 -1075,878 -592,0 -1073,-394 -1073,-878 0,-168 57,-324 157,-458 92,-133 261,-223 454,-223l0 0z"/>
  <path class="fil1" d="M1160 1121c115,0 207,93 207,208 0,113 -92,207 -207,207 -115,0 -208,-94 -208,-207 0,-115 93,-208 208,-208zm936 0c114,0 208,93 208,208 0,113 -94,207 -208,207 -115,0 -207,-94 -207,-207 0,-115 92,-208 207,-208z"/>
 </g>
</svg>
