<?xml version="1.0" encoding="UTF-8"?>
<!DOCTYPE svg PUBLIC "-//W3C//DTD SVG 1.1//EN" "http://www.w3.org/Graphics/SVG/1.1/DTD/svg11.dtd">
<!-- Creator: CorelDRAW X7.4 EN Portable -->
<svg xmlns="http://www.w3.org/2000/svg" xml:space="preserve" width="7.23886in" height="2.26331in" version="1.1" style="shape-rendering:geometricPrecision; text-rendering:geometricPrecision; image-rendering:optimizeQuality; fill-rule:evenodd; clip-rule:evenodd"
viewBox="0 0 7239 2263"
 xmlns:xlink="http://www.w3.org/1999/xlink"
 enable-background="new 0 0 514.485 515.996">
 <defs>
  <style type="text/css">
   <![CDATA[
    .fil0 {fill:none}
    .fil1 {fill:#0052FC}
    .fil5 {fill:#0831A5}
    .fil3 {fill:#0DBBFA}
    .fil2 {fill:#5DE6F9}
    .fil4 {fill:white}
    .fil6 {fill:#071840;fill-rule:nonzero}
   ]]>
  </style>
 </defs>
 <g id="Layer_x0020_1">
  <metadata id="CorelCorpID_0Corel-Layer"/>
  <rect class="fil0" y="5" width="7239" height="2259"/>
  <path class="fil1" d="M1209 2263c-31,3 -64,5 -95,5l0 0c-613,0 -1114,-502 -1114,-1114l0 -444 0 -100c0,-333 272,-605 604,-605l0 0c333,0 605,272 605,605l0 100 0 1553 0 0z"/>
  <path class="fil2" d="M1918 1655c-11,14 -24,30 -36,42l0 0c-247,263 -662,277 -925,31l-191 -178 -42 -41c-142,-133 -150,-358 -17,-500l0 0c135,-144 360,-150 502,-17l42 39 667 624z"/>
  <path class="fil3" d="M1209 992l0 883c-91,-29 -178,-78 -252,-147l-191 -178 -42 -41c-142,-133 -150,-358 -17,-500l0 0c135,-144 360,-150 502,-17l0 0z"/>
  <path class="fil4" d="M432 289c75,0 139,35 172,88 34,-53 98,-88 172,-88 72,0 134,33 169,83 37,49 59,108 59,169 0,182 -180,327 -400,327 -221,0 -399,-145 -399,-327 0,-61 22,-120 59,-169 33,-50 97,-83 168,-83z"/>
  <path class="fil1" d="M430 422c42,0 77,35 77,77 0,42 -35,77 -77,77 -42,0 -77,-35 -77,-77 0,-42 35,-77 77,-77zm349 0c42,0 77,35 77,77 0,42 -35,77 -77,77 -44,0 -78,-35 -78,-77 0,-42 34,-77 78,-77z"/>
  <path class="fil5" d="M613 1279c-15,327 363,596 596,776l0 -180c-91,-29 -178,-78 -252,-147l-191 -178 -42 -41c-67,-62 -105,-145 -111,-230z"/>
  <path class="fil6" d="M2543 419l0 1045 -241 0 0 -1045 241 0zm537 247c78,0 147,18 209,49 61,33 110,80 146,141 34,61 53,133 53,214 0,83 -19,155 -53,216 -36,61 -85,108 -146,140 -62,32 -131,49 -209,49 -78,0 -149,-17 -211,-49 -63,-32 -111,-79 -146,-140 -36,-61 -53,-133 -53,-216 0,-81 17,-153 53,-214 35,-61 83,-108 146,-141 62,-31 133,-49 211,-49zm0 210c-47,0 -86,17 -118,50 -31,33 -46,81 -46,144 0,64 15,112 46,145 32,33 71,49 118,49 45,0 84,-16 116,-49 31,-33 46,-81 46,-145 0,-63 -15,-111 -46,-144 -32,-33 -71,-50 -116,-50zm833 -210c60,0 112,14 155,41 44,28 75,66 96,113l0 -144 241 0 0 785c0,73 -14,139 -43,199 -28,57 -72,104 -129,140 -60,35 -132,52 -218,52 -119,0 -214,-28 -285,-85 -71,-56 -114,-131 -128,-228l240 0c6,33 23,58 51,75 27,19 61,27 105,27 50,0 91,-14 120,-42 32,-30 46,-76 46,-138l0 -139c-21,47 -52,84 -96,112 -43,27 -95,41 -155,41 -65,0 -123,-17 -175,-49 -51,-32 -92,-79 -122,-140 -29,-61 -43,-133 -43,-216 0,-83 14,-153 43,-214 30,-61 71,-108 122,-141 52,-31 110,-49 175,-49l0 0zm77 213c-51,0 -92,16 -125,50 -31,35 -47,81 -47,141 0,61 16,108 47,142 33,33 74,50 125,50 52,0 94,-17 125,-51 33,-35 49,-82 49,-141 0,-58 -16,-105 -49,-139 -31,-35 -73,-52 -125,-52zm1233 -213c78,0 148,18 209,49 63,33 111,80 146,141 36,61 53,133 53,214 0,83 -17,155 -53,216 -35,61 -83,108 -146,140 -61,32 -131,49 -209,49 -79,0 -149,-17 -211,-49 -61,-32 -110,-79 -146,-140 -36,-61 -53,-133 -53,-216 0,-81 17,-153 53,-214 36,-61 85,-108 146,-141 62,-31 132,-49 211,-49zm0 210c-46,0 -85,17 -116,50 -33,33 -49,81 -49,144 0,64 16,112 49,145 31,33 70,49 116,49 47,0 84,-16 115,-49 32,-33 47,-81 47,-145 0,-63 -15,-111 -47,-144 -31,-33 -68,-50 -115,-50zm1687 -200l-203 788 -269 0 -142 -527 -144 527 -271 0 -202 -788 241 0 105 569 147 -569 257 0 151 569 105 -569 225 0zm329 -257l0 1045 -241 0 0 -1045 241 0z"/>
 </g>
</svg>
